<?xml version="1.0" encoding="UTF-8"?>
<!DOCTYPE svg PUBLIC "-//W3C//DTD SVG 1.1//EN" "http://www.w3.org/Graphics/SVG/1.1/DTD/svg11.dtd">
<!-- Creator: CorelDRAW -->
<svg xmlns="http://www.w3.org/2000/svg" xml:space="preserve" width="1000px" height="1000px" style="shape-rendering:geometricPrecision; text-rendering:geometricPrecision; image-rendering:optimizeQuality; fill-rule:evenodd; clip-rule:evenodd"
viewBox="0 0 1000 1000"
 xmlns:xlink="http://www.w3.org/1999/xlink"
 version="1.1">
 <defs>
  <style type="text/css">
   <![CDATA[
    .fil0 {fill:#11D1B7}
    .fil1 {fill:white}
   ]]>
  </style>
 </defs>
 <g id="Layer_x0020_1">
  <metadata id="CorelCorpID_0Corel-Layer"/>
  <circle class="fil0" cx="500" cy="500" r="500"/>
  <path class="fil1" d="M225 757.212l0 -427.887c0,-11.5382 4.32638,-21.6343 12.4996,-30.2894 8.17323,-8.65512 18.2681,-12.4996 29.8075,-12.4996l42.3083 0 0 -32.211c0,-14.9043 5.2878,-27.404 15.3851,-37.9807 10.578,-10.578 22.5957,-15.8658 37.5012,-15.8658l21.1536 0c14.4236,0 26.9232,5.2878 37.5,15.8658 10.578,10.5768 15.3851,23.0764 15.3851,37.9807l0 32.211 126.923 0 0 -32.211c0,-14.9043 5.2878,-27.404 15.3851,-37.9807 10.5768,-10.578 22.5957,-15.8658 37.5012,-15.8658l21.1524 0c14.4236,0 26.9232,5.2878 37.5012,15.8658 10.5768,10.5768 15.3851,23.0764 15.3851,37.9807l0 32.211 42.3048 0c11.5394,0 21.1547,4.32638 29.8075,12.4996 8.17323,8.65512 12.4996,18.2693 12.4996,30.2894l0 427.406c0,11.5382 -4.32638,21.6343 -12.4996,30.2882 -8.17323,8.65512 -18.2681,12.4996 -29.8075,12.4996l-465.384 0c-11.5382,0 -21.1547,-4.32638 -29.8075,-12.4996 -8.17323,-8.65394 -12.5008,-18.2681 -12.5008,-29.8075zm42.3083 0l465.384 0 0 -342.31 -465.384 0 0 342.31zm84.6142 -406.251c0,2.88544 0.961418,5.76969 2.88544,7.69253 1.92284,1.92166 4.32638,2.88544 7.69253,2.88544l21.1547 -0.00236221c2.88544,0 5.76851,-0.961418 7.69134,-2.88544 1.92284,-1.92284 2.88544,-4.32638 2.88544,-7.69134l0 -96.1548c0,-2.88544 -0.961418,-5.76969 -2.88544,-7.69134 -1.92284,-1.92284 -4.32638,-2.88662 -7.69134,-2.88662l-21.1547 0.00236221c-2.88544,0 -5.76969,0.961418 -7.69253,2.88544 -1.92166,1.92284 -2.88544,4.80827 -2.88544,7.69134l0 96.1548zm253.847 0c0,2.88544 0.960237,5.76969 2.88544,7.69253 1.92166,1.92166 4.32638,2.88544 7.69134,2.88544l21.1547 -0.00236221c2.88544,0 5.76851,-0.961418 7.69134,-2.88544 1.92284,-1.92284 2.88544,-4.32638 2.88544,-7.69134l0 -96.1548c0,-2.88544 -0.961418,-5.76969 -2.88544,-7.69134 -1.92284,-1.92284 -4.32638,-2.88662 -7.69134,-2.88662l-21.1547 0.00236221c-2.88544,0 -5.76969,0.961418 -7.69134,2.88544 -1.92284,1.92284 -2.88544,4.80827 -2.88544,7.69134l0 96.1548z"/>
 </g>
</svg>
