<?xml version="1.0" encoding="UTF-8"?>
<!DOCTYPE svg PUBLIC "-//W3C//DTD SVG 1.1//EN" "http://www.w3.org/Graphics/SVG/1.1/DTD/svg11.dtd">
<!-- Creator: CorelDRAW -->
<svg xmlns="http://www.w3.org/2000/svg" xml:space="preserve" width="1000px" height="1000px" style="shape-rendering:geometricPrecision; text-rendering:geometricPrecision; image-rendering:optimizeQuality; fill-rule:evenodd; clip-rule:evenodd"
viewBox="0 0 1000 1000"
 xmlns:xlink="http://www.w3.org/1999/xlink"
 version="1.1">
 <defs>
  <style type="text/css">
   <![CDATA[
    .fil0 {fill:#11D1B7}
    .fil1 {fill:white}
   ]]>
  </style>
 </defs>
 <g id="Layer_x0020_1">
  <metadata id="CorelCorpID_0Corel-Layer"/>
  <circle class="fil0" cx="500" cy="500" r="500"/>
  <g id="_317299712">
   <path id="_317300216" class="fil1" d="M499.97 150.031c54.2847,0 105.657,12.3673 151.559,34.4256 -18.789,14.8642 -36.2103,29.1343 -52.4422,42.8693 -30.9189,-11.2382 -64.2745,-17.3622 -99.058,-17.3622 -80.0894,0 -152.629,32.465 -205.07,84.9662 -52.5024,52.5012 -84.9662,124.981 -84.9662,205.07 0,80.0906 32.4638,152.569 84.9662,205.071 52.5012,52.5012 124.981,84.965 205.07,84.965 80.0906,0 152.629,-32.4638 205.071,-84.965 52.5012,-52.5024 84.965,-124.982 84.965,-205.071 0,-19.0264 -1.84252,-37.6961 -5.3504,-55.7126 15.0425,-19.6205 30.4418,-39.1819 46.1989,-58.5662 12.3673,35.7945 19.0854,74.2631 19.0854,114.279 0,96.619 -39.1819,184.141 -102.506,247.465 -63.3225,63.3225 -150.845,102.506 -247.465,102.506 -96.619,0 -184.141,-39.1831 -247.465,-102.506 -63.3827,-63.3225 -102.565,-150.845 -102.565,-247.465 0,-96.619 39.1819,-184.141 102.506,-247.464 63.3225,-63.3237 150.845,-102.506 247.465,-102.506l0 0zm-163.035 292.473l85.382 -1.12913 6.3626 1.66536c17.2429,9.92954 33.4748,21.2858 48.6367,34.1292 10.9406,9.2752 21.4051,19.3831 31.3347,30.3236 30.6201,-49.291 63.2634,-94.5391 97.7481,-136.16 37.7563,-45.6036 77.8312,-86.9871 119.928,-124.742l8.32323 -3.21142 93.1713 0 -18.789 20.8701c-57.7335,64.1552 -110.117,130.45 -157.445,198.828 -47.3292,68.4355 -89.6635,139.071 -127.3,211.79l-11.713 22.5933 -10.7622 -23.0103c-19.8591,-42.6307 -43.6418,-81.7548 -72.0036,-116.715 -28.3618,-34.9618 -61.3607,-65.9989 -99.8304,-92.3977l6.9567 -22.8331 0 0z"/>
  </g>
 </g>
</svg>
