<?xml version="1.0" encoding="UTF-8"?>
<!DOCTYPE svg PUBLIC "-//W3C//DTD SVG 1.1//EN" "http://www.w3.org/Graphics/SVG/1.1/DTD/svg11.dtd">
<!-- Creator: CorelDRAW -->
<svg xmlns="http://www.w3.org/2000/svg" xml:space="preserve" width="1000px" height="1000px" style="shape-rendering:geometricPrecision; text-rendering:geometricPrecision; image-rendering:optimizeQuality; fill-rule:evenodd; clip-rule:evenodd"
viewBox="0 0 1000 1000"
 xmlns:xlink="http://www.w3.org/1999/xlink"
 version="1.1">
 <defs>
  <style type="text/css">
   <![CDATA[
    .fil0 {fill:#73DCE9}
    .fil1 {fill:white}
   ]]>
  </style>
 </defs>
 <g id="Layer_x0020_1">
  <metadata id="CorelCorpID_0Corel-Layer"/>
  <circle class="fil0" cx="500" cy="500" r="500"/>
  <g id="_317120016">
   <g>
    <g>
     <path id="_318410736" class="fil1" d="M569.852 509.683c-69.6816,0 -126.37,56.6882 -126.37,126.37 0,69.6816 56.6882,126.37 126.37,126.37 69.6816,0 126.372,-56.6882 126.372,-126.37 0,-69.6816 -56.6953,-126.37 -126.372,-126.37zm0 206.427c-44.1426,0 -80.0575,-35.915 -80.0575,-80.0575 0,-13.663 3.44882,-26.5335 9.50788,-37.7977l54.1737 54.1737c4.3441,4.34174 10.2331,6.78308 16.376,6.78308l76.6288 0c-9.95906,32.8831 -40.5378,56.8985 -76.6288,56.8985zm9.59174 -103.214l-47.3918 -47.3918c11.2654,-6.06024 24.137,-9.50788 37.7977,-9.50788 36.0957,0 66.6745,24.0142 76.6323,56.8997l-67.0382 0z"/>
     <path id="_318411936" class="fil1" d="M706.21 218.806l-66.6249 0c-8.14371,-20.1461 -27.8941,-34.4055 -50.9233,-34.4055l-35.9646 0c-8.93032,-20.2382 -29.1898,-34.402 -52.6973,-34.402 -23.5075,0 -43.767,14.1638 -52.6973,34.4044l-35.9646 0c-23.0292,0 -42.7819,14.2595 -50.9233,34.4055l-66.6249 0c-31.8579,0 -57.7784,25.9217 -57.7784,57.7796l0 515.635c0,31.8579 25.9205,57.776 57.7784,57.776l412.42 0c31.8579,0 57.7784,-25.9181 57.7784,-57.7772l0 -515.637c0,-31.8579 -25.9205,-57.7796 -57.7784,-57.7796zm-303.471 20.5075l0 0c0.00236221,-4.73977 3.85985,-8.59725 8.59961,-8.59725l54.2563 0c12.7878,0 23.1555,-10.3689 23.1555,-23.1567 0,-6.20079 5.04685,-11.2476 11.2476,-11.2476 6.20079,0 11.2465,5.04685 11.2465,11.2476 0,12.789 10.3689,23.1567 23.1567,23.1567l54.2563 0c4.73977,0 8.59725,3.85748 8.59725,8.59725l0 39.7075c0,4.73859 -3.85748,8.59725 -8.59725,8.59725l-177.321 0c-4.73977,0 -8.59843,-3.85866 -8.59843,-8.59843l0.0011811 -39.7063zm303.471 564.37l-412.42 0c-6.32363,0 -11.4662,-5.14252 -11.4662,-11.4638l0 -515.634c0,-6.32363 5.14252,-11.4662 11.4662,-11.4662l62.6375 0 0 13.898c0,30.2799 24.6343,54.9119 54.9107,54.9119l177.321 0c30.2788,0 54.9107,-24.6343 54.9107,-54.9119l0 -13.898 62.6375 0c6.32363,0 11.4662,5.14252 11.4662,11.4662l0 515.634 0.00236221 0c-0.00236221,6.32126 -5.14607,11.4638 -11.4662,11.4638z"/>
     <path id="_318411768" class="fil1" d="M327.977 418.377l172.023 0c12.789,0 23.1567,-10.3689 23.1567,-23.1567 0,-12.789 -10.3677,-23.1567 -23.1567,-23.1567l-172.023 0c-12.7878,0 -23.1555,10.3677 -23.1555,23.1567 -0.00354331,12.7878 10.3654,23.1567 23.1555,23.1567z"/>
     <path id="_318411216" class="fil1" d="M327.977 487.186l103.215 0c12.789,0 23.1567,-10.3677 23.1567,-23.1567 0,-12.7878 -10.3677,-23.1555 -23.1567,-23.1555l-103.215 0c-12.7878,0 -23.1555,10.3677 -23.1555,23.1555 -0.00354331,12.789 10.3654,23.1567 23.1555,23.1567z"/>
     <path id="_317122824" class="fil1" d="M454.347 532.839c0,-12.789 -10.3677,-23.1567 -23.1567,-23.1567l-103.213 0c-12.7878,0 -23.1555,10.3689 -23.1555,23.1567 0,12.789 10.3677,23.1567 23.1555,23.1567l103.215 0c12.789,0 23.1543,-10.3677 23.1543,-23.1567z"/>
    </g>
   </g>
  </g>
  <g id="_317366224">
  </g>
  <g id="_317366416">
  </g>
  <g id="_317366584">
  </g>
  <g id="_317366896">
  </g>
  <g id="_317367208">
  </g>
  <g id="_317367520">
  </g>
  <g id="_317367832">
  </g>
  <g id="_317368144">
  </g>
  <g id="_317368456">
  </g>
  <g id="_317368768">
  </g>
  <g id="_317369080">
  </g>
  <g id="_317369392">
  </g>
  <g id="_319576720">
  </g>
  <g id="_319577032">
  </g>
  <g id="_319577344">
  </g>
 </g>
</svg>
