<?xml version="1.0" encoding="UTF-8"?>
<!DOCTYPE svg PUBLIC "-//W3C//DTD SVG 1.1//EN" "http://www.w3.org/Graphics/SVG/1.1/DTD/svg11.dtd">
<!-- Creator: CorelDRAW -->
<svg xmlns="http://www.w3.org/2000/svg" xml:space="preserve" width="1200px" height="325px" style="shape-rendering:geometricPrecision; text-rendering:geometricPrecision; image-rendering:optimizeQuality; fill-rule:evenodd; clip-rule:evenodd"
viewBox="0 0 1200 324.999"
 xmlns:xlink="http://www.w3.org/1999/xlink">
 <defs>
  <style type="text/css">
   <![CDATA[
    .fil1 {fill:#4D4D4D;fill-rule:nonzero}
    .fil0 {fill:#FF9933;fill-rule:nonzero}
   ]]>
  </style>
 </defs>
 <g id="Layer_x0020_1">
  <metadata id="CorelCorpID_0Corel-Layer"/>
  <path class="fil0" d="M372.709 82.5839l0 -44.4602c-0.138189,-5.34685 -1.87441,-9.86102 -5.27717,-13.5413 -3.47244,-3.68031 -7.91693,-6.66732 -13.3335,-9.02835 -5.41654,-2.36102 -11.1118,-4.16575 -17.2228,-5.48504 -6.11102,-1.32047 -11.8051,-2.29252 -17.2217,-2.84764 -5.41654,-0.555118 -9.86102,-0.902362 -13.2638,-1.04173 -3.47244,-0.13937 -5.20866,-0.13937 -5.34685,-0.13937l0 44.4602c0.138189,0 1.87441,0 5.34685,0.13937 3.40276,0.13937 7.84724,0.486614 13.2638,1.04173 5.41654,0.555118 11.1106,1.52717 17.2217,2.84764 6.11102,1.31929 11.8063,3.12402 17.2228,5.48504 5.41654,2.36102 9.86102,5.34803 13.3335,9.02835 3.40276,3.68031 5.13898,8.19449 5.27717,13.5413z"/>
  <path class="fil1" d="M301.043 285.207c0.138189,5.34685 1.87441,9.79134 5.34685,13.5413 3.40276,3.68031 7.84724,6.66732 13.2638,9.02835 5.41654,2.36102 11.1106,4.16575 17.2217,5.48622 6.11102,1.31929 11.8063,2.29134 17.2228,2.84646 5.41654,0.556299 9.86102,0.903543 13.3335,1.04173 3.40276,0.13937 5.13898,0.13937 5.27717,0.13937l0 -192.702c-0.138189,-5.34685 -1.87441,-9.86102 -5.27717,-13.5413 -3.47244,-3.68031 -7.91693,-6.66732 -13.3335,-9.02835 -5.41654,-2.36102 -11.1118,-4.16575 -17.2228,-5.48504 -6.11102,-1.32047 -11.8051,-2.29252 -17.2217,-2.84764 -5.41654,-0.555118 -9.86102,-0.902362 -13.2638,-1.04173 -3.47244,-0.13937 -5.20866,-0.13937 -5.34685,-0.13937l0 192.702z"/>
  <path class="fil1" d="M6.45945 101.041c0.069685,13.9583 2.15315,25.8331 6.11102,35.5547 4.02756,9.72283 9.51378,17.7083 16.4587,24.0283 6.94488,6.25039 14.8606,11.3197 23.7496,15.1382 8.95866,3.81969 18.3331,6.80551 28.1941,8.95866 9.93071,2.22283 19.7917,4.02756 29.7224,5.48622 9.86102,1.52835 19.3063,3.05551 28.1941,4.72205 8.88898,1.66654 16.8059,3.81969 23.7508,6.59764 6.9437,2.70827 12.4299,6.38858 16.4575,11.1106 4.02874,4.72205 6.04252,10.8331 6.1122,18.4028 0.0685039,12.3614 -4.65354,21.7358 -14.237,28.1941 -9.51378,6.45827 -24.3744,9.65315 -44.5134,9.72283 -7.08307,0 -14.8606,-0.347244 -23.1945,-1.11142 -8.33268,-0.764173 -16.6665,-2.15315 -24.9307,-4.09724 -8.26417,-1.94409 -15.8327,-4.65236 -22.7079,-8.1248 -6.8752,-3.47244 -12.3614,-7.84724 -16.5283,-13.1941 -4.16575,-5.27835 -6.24921,-11.7366 -6.38858,-19.3063 -6.59646,8.33386 -11.3882,16.0417 -14.3752,23.1945 -2.98583,7.08425 -4.44449,13.6807 -4.3748,19.722 0.069685,7.77874 2.22283,14.6528 6.45827,20.6953 4.23661,6.04134 10.0701,11.25 17.4307,15.6945 7.36063,4.44449 15.8339,8.05512 25.4161,10.9713 9.58346,2.84764 19.7917,5.00079 30.5563,6.38976 10.7634,1.38898 21.6661,2.08346 32.6386,2.08346 19.5827,0 37.4303,-2.01496 53.6799,-6.04252 16.1811,-3.95787 30.2091,-9.99921 42.0142,-17.9858 11.8051,-7.98543 20.9728,-17.9858 27.4311,-29.9303 6.45827,-12.0142 9.72165,-25.9028 9.79134,-41.8748 -0.069685,-15.2091 -2.15315,-28.1256 -6.11102,-38.7496 -4.02756,-10.6949 -9.51378,-19.5142 -16.4587,-26.4591 -6.94488,-7.01339 -14.8606,-12.639 -23.7496,-16.8744 -8.95866,-4.23661 -18.3331,-7.5 -28.1941,-9.93071 -9.93071,-2.36102 -19.7917,-4.30512 -29.7224,-5.69409 -9.86102,-1.45866 -19.2366,-2.84764 -28.1941,-4.3063 -8.88898,-1.38898 -16.8059,-3.1937 -23.7508,-5.41654 -6.9437,-2.29134 -12.4299,-5.41654 -16.4575,-9.44409 -3.95906,-4.02756 -6.04252,-9.37559 -6.11102,-16.0417 0.0685039,-8.40236 2.36102,-14.7921 6.87402,-19.3051 4.51417,-4.44449 10.6949,-7.56969 18.6118,-9.16654 7.91575,-1.66772 17.0835,-2.43071 27.4299,-2.3622 7.91693,-0.0685039 16.389,0.347244 25.3476,1.04173 8.95748,0.764173 17.778,2.08346 26.4579,3.95906 8.74961,1.87441 16.5969,4.51417 23.7496,7.84724 7.08425,3.40276 12.7783,7.63819 17.0835,12.8469 4.23661,5.20866 6.45827,11.4579 6.52795,18.8894 0,0.832677 0,1.73622 -0.069685,2.77677 0,0.973228 -0.138189,2.01496 -0.347244,3.05551 5.83346,-9.79134 10.1398,-18.7488 12.9165,-26.9433 2.77795,-8.19449 4.16693,-15.5563 4.16693,-22.2224 -0.069685,-10.0004 -2.91614,-18.4028 -8.61142,-25.3476 -5.69409,-6.9437 -13.6795,-12.4996 -24.0272,-16.7362 -10.3476,-4.23543 -22.6394,-7.36063 -36.8055,-9.23622 -14.1661,-1.94409 -29.7224,-2.91614 -46.8059,-2.84646 -13.9583,-0.069685 -27.2906,0.902362 -39.861,2.77795 -12.6378,1.87441 -24.235,4.92992 -34.7906,9.23622 -10.5555,4.23543 -19.7232,9.86102 -27.4311,16.9441 -7.77756,7.08307 -13.8189,15.7642 -18.0555,26.1106 -4.30512,10.3476 -6.45827,22.5697 -6.52795,36.5976l0 0z"/>
  <path class="fil1" d="M598.958 317.29c8.88898,-0.069685 15.9035,-1.73622 21.1807,-4.99961 5.20866,-3.26457 9.09803,-7.63937 11.5972,-13.1953 2.57008,-5.48504 4.16693,-11.6657 4.9311,-18.5409 0.762992,-6.8752 1.11024,-13.8886 1.04173,-21.1807 0.0685039,0.069685 -1.59803,0.764173 -4.9311,1.94409 -3.40276,1.1811 -9.02717,2.43071 -16.9441,3.61181 -7.84724,1.17992 -18.4724,1.87441 -31.8756,1.94409l-85.4161 0 0 -224.583c-0.138189,-5.34685 -1.87441,-9.86102 -5.27717,-13.5413 -3.47244,-3.68031 -7.91693,-6.66732 -13.3335,-9.02835 -5.41654,-2.36102 -11.1118,-4.16575 -17.2228,-5.48504 -6.11102,-1.32047 -11.8051,-2.29252 -17.2217,-2.84764 -5.41654,-0.555118 -9.86102,-0.902362 -13.2638,-1.04173 -3.47244,-0.13937 -5.20866,-0.13937 -5.34685,-0.13937l0 275c0.0685039,5.34685 1.3878,9.86102 3.95787,13.5413 2.5689,3.6815 5.90315,6.66732 10.0004,9.02835 4.02756,2.36102 8.33268,4.16693 12.9165,5.48622 4.58268,1.31929 8.88898,2.29134 12.9165,2.84646 4.09724,0.556299 7.43031,0.903543 9.99921,1.04173 2.57008,0.13937 3.88937,0.13937 3.95906,0.13937l118.332 0z"/>
  <path class="fil1" d="M790.624 3.12402c-2.36102,1.31929 -5.97165,4.23661 -10.9028,8.6811 -4.92992,4.44449 -10.6937,10.4161 -17.2913,17.9858 -6.52795,7.5 -13.4717,16.5969 -20.6941,27.1524 -7.22244,10.6252 -14.2358,22.7091 -21.1807,36.3201 -6.8752,13.611 -13.1244,28.6795 -18.6803,45.2776l-36.6661 110.832c-2.98701,9.44528 -5.83346,18.1252 -8.40354,26.0421 -2.63858,7.91693 -5.27717,15.0697 -7.91575,21.3886 -2.63976,6.25039 -5.55591,11.7366 -8.6811,16.3193 0.069685,0 1.24961,0.416929 3.47244,1.11142 2.29134,0.694488 5.13898,1.52717 8.54173,2.43071 3.47244,0.902362 7.01339,1.73622 10.6937,2.43071 3.61181,0.694488 6.8752,1.04173 9.79252,1.11024 10.9713,-0.0685039 20.0693,-1.87441 27.2906,-5.34685 7.22244,-3.40276 13.1256,-8.1248 17.7094,-14.028 4.58268,-5.90197 8.40236,-12.5693 11.4579,-19.9996 3.05551,-7.43031 5.90315,-15.1394 8.54173,-23.1248l6.24921 -18.3331 93.3343 0 6.24921 18.3331c2.63858,7.98543 5.48622,15.6945 8.54173,23.1248 3.05551,7.43031 6.8752,14.0976 11.4579,19.9996 4.58386,5.90315 10.487,10.6252 17.7083,14.028 7.22244,3.47244 16.3205,5.27835 27.2917,5.34685 2.98701,-0.0685039 6.32008,-0.415748 10.0701,-1.11024 3.68031,-0.694488 7.29094,-1.52835 10.7634,-2.43071 3.47244,-0.903543 6.32008,-1.73622 8.61142,-2.43071 2.22165,-0.694488 3.40276,-1.11142 3.47244,-1.11142 -4.65354,-6.8752 -8.95866,-15.6945 -12.848,-26.3882 -3.88819,-10.6949 -8.1248,-23.1945 -12.5693,-37.3618l-36.6661 -110.832c-5.55591,-16.5283 -11.8051,-31.5283 -18.6803,-45.1394 -6.8752,-13.5413 -13.8886,-25.6252 -21.111,-36.2492 -7.15276,-10.6252 -14.028,-19.6535 -20.6256,-27.2232 -6.52795,-7.5685 -12.2917,-13.611 -17.2913,-18.0555 -4.92992,-4.51299 -8.61142,-7.43031 -11.0421,-8.74961zm0 83.3339c0,0.0685039 0.556299,1.52717 1.59803,4.3748 1.04173,2.84646 2.43071,6.59646 4.09724,11.3185 1.66654,4.65354 3.47244,9.79252 5.34685,15.3472 1.94409,5.55591 3.81969,11.1118 5.62559,16.6677 1.73504,5.55472 3.33307,10.624 4.58268,15.2079l10.8331 39.1665 -64.1657 0 10.8331 -39.1665c1.24961,-4.58386 2.84764,-9.65315 4.58268,-15.2079 1.80591,-5.55591 3.6815,-11.1118 5.62559,-16.6677 1.87441,-5.55472 3.68031,-10.6937 5.34685,-15.3472 1.66654,-4.72205 3.05551,-8.47205 4.09724,-11.3185 1.04173,-2.84764 1.59685,-4.3063 1.59685,-4.3748z"/>
  <path class="fil1" d="M968.542 285.207c0.0685039,5.27835 1.3878,9.72283 3.95787,13.4031 2.5689,3.61063 5.83346,6.66614 9.86102,8.95866 4.02756,2.36102 8.33268,4.23543 12.8469,5.55472 4.51417,1.31929 8.81929,2.29252 12.848,2.84764 4.02756,0.624803 7.29094,0.972047 9.86102,1.11142 2.5689,0.138189 3.88819,0.207874 3.95787,0.207874l51.2504 0c17.9161,0 34.1657,-1.45866 48.8882,-4.58386 14.7224,-3.05551 27.3614,-7.84724 38.0551,-14.3055 10.6252,-6.52677 18.8894,-14.9303 24.6531,-25.2083 5.83346,-10.3465 8.74961,-22.7079 8.81929,-37.1528l0 -9.16654c0,-6.52677 -0.902362,-12.985 -2.63858,-19.4445 -1.73622,-6.45827 -4.23661,-12.5693 -7.5,-18.2634 -3.26457,-5.76378 -7.22244,-10.7634 -11.8063,-15.1382 -4.65236,-4.37598 -9.79134,-7.70906 -15.5551,-10.0701 4.9311,-1.94409 9.44409,-5.06929 13.4728,-9.30591 4.09724,-4.23543 7.5685,-9.16654 10.5555,-14.8606 2.91614,-5.69409 5.20748,-11.7366 6.87402,-18.0555 1.59803,-6.3189 2.43071,-12.4996 2.43071,-18.6106l0 -8.33386c-0.0685039,-15.1382 -2.98583,-27.9165 -8.67992,-38.2642 -5.69409,-10.2768 -13.7504,-18.5409 -24.0969,-24.7913 -10.4173,-6.18071 -22.7091,-10.6252 -36.8055,-13.3335 -14.1673,-2.77795 -29.7224,-4.09724 -46.6665,-4.02756l-104.583 0 0 270.833zm107.916 -95.4165c15.763,-0.069685 27.2917,3.1252 34.5827,9.51378 7.29213,6.45827 10.9028,16.598 10.8331,30.4866 0.069685,8.95866 -1.66654,16.1799 -5.06929,21.6661 -3.33307,5.41654 -8.67992,9.37559 -15.8327,11.8063 -7.22244,2.42953 -16.4587,3.68031 -27.8469,3.61063l-32.9173 0 0 -77.0835 36.2504 0zm-3.33307 -124.583c9.99921,-0.069685 18.2634,0.902362 24.9295,2.91614 6.59764,2.01378 11.5287,5.34803 14.7921,10.0004 3.26339,4.58386 4.86142,10.9028 4.86142,18.75 0.0685039,9.16654 -1.25079,16.9441 -3.95906,23.2642 -2.63858,6.3189 -7.01339,11.0409 -13.0547,14.3055 -6.04252,3.26339 -14.1673,4.92992 -24.2362,4.92992l-36.2504 0 0 -74.1661 32.9173 0z"/>
 </g>
</svg>
